<svg width="25" height="25" viewBox="0 0 26 37" fill="none" xmlns="http://www.w3.org/2000/svg">
<g clip-path="url(#clip0_445_4)">
<path d="M18.4866 0.924697C18.7895 1.29894 18.9438 1.8039 19.2527 2.81382L26 24.8763C23.4656 23.5672 20.7454 22.6505 17.9333 22.1578L13.5401 7.38059C13.5051 7.26273 13.4326 7.15933 13.3336 7.08585C13.2346 7.01238 13.1144 6.97278 12.9909 6.97297C12.8674 6.97316 12.7473 7.01314 12.6486 7.08693C12.5498 7.16071 12.4777 7.26434 12.443 7.38231L8.10306 22.1505C5.27822 22.6408 2.54551 23.5589 0 24.8729L6.78031 2.80866C7.09018 1.80057 7.24516 1.29642 7.54802 0.922877C7.81539 0.593131 8.16316 0.337046 8.55816 0.179036C9.00555 0 9.5352 0 10.5944 0H15.4372C16.4978 0 17.0281 0 17.476 0.179339C17.8713 0.337733 18.2192 0.594353 18.4865 0.924697H18.4866Z" fill="white"/>
<path d="M19.2941 25.9264C18.1817 26.873 15.9616 27.5187 13.4042 27.5187C10.2656 27.5187 7.63479 26.5461 6.93675 25.238C6.68711 25.9876 6.63115 26.8457 6.63115 27.3937C6.63115 27.3937 6.46672 30.0851 8.34735 31.9571C8.34735 30.9851 9.13903 30.197 10.1156 30.197C11.7893 30.197 11.7873 31.6506 11.7858 32.8298L11.7857 32.935C11.7857 34.7249 12.8847 36.2593 14.4477 36.906C14.2071 36.4131 14.0825 35.8721 14.0833 35.3242C14.0833 33.6171 15.0901 32.9815 16.2603 32.2429C17.1913 31.6551 18.2258 31.002 18.9387 29.6921C19.3226 28.9864 19.5231 28.1963 19.5219 27.3937C19.5219 26.8822 19.442 26.3892 19.2941 25.9264Z" fill="#FF5D01"/>
</g>
<defs>
<clipPath id="clip0_445_4">
<rect width="26" height="37" fill="white"/>
</clipPath>
</defs>
</svg>
