<svg width="25" height="25" viewBox="0 0 26 21" fill="none" xmlns="http://www.w3.org/2000/svg">
<g clip-path="url(#clip0_400_510)">
<path d="M5.40028 0C3.91676 0 2.81897 1.3161 2.86812 2.74338C2.91535 4.11456 2.85401 5.8906 2.41292 7.33888C1.97052 8.79138 1.2222 9.71147 0 9.82965V11.1634C1.2222 11.2815 1.97052 12.2016 2.41292 13.6542C2.85401 15.1025 2.91535 16.8783 2.86812 18.2496C2.81897 19.6767 3.91676 20.993 5.40048 20.993H20.6016C22.0853 20.993 23.1828 19.6769 23.1336 18.2496C23.0865 16.8784 23.1477 15.1025 23.5888 13.6542C24.0315 12.2017 24.7778 11.2814 26 11.1634V9.82965C24.7778 9.71147 24.0315 8.79138 23.5889 7.33888C23.1477 5.89081 23.0865 4.11466 23.1336 2.74338C23.1828 1.31631 22.0853 0 20.6016 0H5.40008H5.40028ZM17.6272 12.9225C17.6272 14.8879 16.1809 16.0797 13.7808 16.0797H9.69495C9.5781 16.0797 9.46603 16.0326 9.38341 15.9489C9.30079 15.8651 9.25438 15.7515 9.25438 15.6331V5.35994C9.25436 5.30128 9.26575 5.24318 9.28789 5.18898C9.31003 5.13478 9.34249 5.08552 9.38341 5.04404C9.42433 5.00255 9.47292 4.96964 9.52639 4.94719C9.57986 4.92473 9.63718 4.91318 9.69505 4.91318H13.7575C15.7587 4.91318 17.0721 6.01207 17.0721 7.69907C17.0721 8.88321 16.1886 9.94329 15.0629 10.1289V10.1908C16.5954 10.3611 17.6272 11.4368 17.6272 12.9225ZM13.3352 6.32913H11.0056V9.66443H12.9678C14.4845 9.66443 15.321 9.04534 15.321 7.93872C15.321 6.90179 14.6016 6.32913 13.3352 6.32913ZM11.0056 10.9878V14.6634H13.421C15.0001 14.6634 15.8367 14.0211 15.8367 12.814C15.8367 11.6067 14.9768 10.9876 13.3194 10.9876H11.0056V10.9878Z" fill="#7E13F8"/>
</g>
<defs>
<clipPath id="clip0_400_510">
<rect width="26" height="21" fill="white"/>
</clipPath>
</defs>
</svg>
