<svg width="25" height="25" viewBox="0 0 24 27" fill="none" xmlns="http://www.w3.org/2000/svg">
<g clip-path="url(#clip0_401_512)">
<path d="M2.17699 23.8846L0 0H23.9469L21.7699 23.8846L11.9469 26.5846" fill="#0C73B8"/>
<path d="M12 24.5077L19.9115 22.3788L21.7699 1.92114H12" fill="#30A9DC"/>
<path d="M12 10.8001H4.99118L5.25667 13.7597H12V10.8001ZM12 4.88086H4.46021L4.72569 7.78855H12V4.88086ZM12 18.4328L5.41596 16.7193L5.78764 19.8347L12 21.4962V18.4328Z" fill="#ECEDEE"/>
<path d="M12 13.7597H15.6637L15.292 17.5501L12 18.4328V21.4962L18.1062 19.8347L19.4867 4.88086H12V7.78855H16.2478L15.9292 10.8001H12V13.7597Z" fill="white"/>
</g>
<defs>
<clipPath id="clip0_401_512">
<rect width="24" height="27" fill="white"/>
</clipPath>
</defs>
</svg>
