<svg width="25" height="25" viewBox="0 0 23 15" fill="none" xmlns="http://www.w3.org/2000/svg">
<path d="M23 13.8214C22.1634 14.0341 21.6459 13.8307 21.1816 13.1335L17.8796 8.56517L17.4024 7.93267L13.5463 13.1486C13.1057 13.7761 12.6435 14.0492 11.8213 13.8271L16.7591 7.19883L12.162 1.21164C12.9526 1.05783 13.4988 1.13617 13.984 1.84414L17.4088 6.4693L20.8588 1.8693C21.3009 1.24183 21.776 1.00321 22.5695 1.23464L20.787 3.59789L18.372 6.74242C18.0845 7.1018 18.124 7.34761 18.3885 7.69477L23 13.8214ZM0.00575 7.08814L0.409687 5.10152C1.50937 1.16996 6.01594 -0.463763 9.12381 1.96561C10.9401 3.39449 11.3915 5.41561 11.3016 7.67967H1.06375C0.909938 11.755 3.84316 14.2145 7.58281 12.9596C8.89453 12.519 9.66719 11.4919 10.0539 10.2068C10.2501 9.5628 10.575 9.46217 11.1802 9.64617C10.8711 11.2533 10.1739 12.5959 8.70047 13.4361C6.49894 14.694 3.35656 14.2871 1.70344 12.5391C0.71875 11.525 0.311938 10.2399 0.129375 8.86561C0.100625 8.63849 0.043125 8.42214 0 8.20436C0.00383333 7.83253 0.00575 7.4607 0.00575 7.08886V7.08814ZM1.08244 6.81502H10.3342C10.2738 3.86814 8.43884 1.77514 5.93112 1.75717C3.17831 1.73561 1.20175 3.77902 1.08244 6.81502Z" fill="white"/>
</svg>
