<svg width="25" height="25" viewBox="0 0 12 25" fill="none" xmlns="http://www.w3.org/2000/svg">
<path d="M8.23229 2.78269C7.15369 1.53947 6.22487 0.276767 6.03512 0.0145628C6.03061 0.00996117 6.02518 0.00629751 6.01917 0.00379417C6.01316 0.00129083 6.00669 0 6.00015 0C5.99361 0 5.98714 0.00129083 5.98112 0.00379417C5.97511 0.00629751 5.96969 0.00996117 5.96518 0.0145628C5.77543 0.276812 4.8466 1.53947 3.76796 2.78269C-5.49018 14.2534 5.22615 21.9944 5.22615 21.9944L5.31601 22.0527C5.39588 23.2473 5.59566 24.9666 5.59566 24.9666H6.39465C6.39465 24.9666 6.59434 23.2571 6.67426 22.0528L6.76416 21.9847C6.77415 21.9945 17.4905 14.2534 8.23229 2.78269ZM5.99513 21.8196C5.99513 21.8196 5.51574 21.4214 5.3859 21.2175V21.198L5.96518 8.70746C5.96518 8.66862 6.02513 8.66862 6.02513 8.70746L6.60437 21.198V21.2175C6.47452 21.4214 5.99513 21.8196 5.99513 21.8196V21.8196Z" fill="#01EC64"/>
</svg>
