<svg width="25" height="25" viewBox="0 0 23 26" fill="none" xmlns="http://www.w3.org/2000/svg">
<g clip-path="url(#clip0_400_500)">
<path d="M12.122 0.162901C11.7317 -0.054626 11.2683 -0.054626 10.878 0.162901L0.60977 6.03685C0.219488 6.25438 0 6.66531 0 7.10036V18.8723C0 19.3074 0.243926 19.7184 0.60977 19.9359L10.878 25.8098C11.2683 26.0274 11.7317 26.0274 12.122 25.8098L22.3902 19.9359C22.7805 19.7184 23 19.3074 23 18.8723V7.10036C23 6.66531 22.7561 6.25438 22.3902 6.03685L12.122 0.162901Z" fill="url(#paint0_linear_400_500)"/>
<mask id="mask0_400_500" style="mask-type:luminance" maskUnits="userSpaceOnUse" x="0" y="-1" width="23" height="27">
<path d="M12.122 0.162901C11.7317 -0.054626 11.2683 -0.054626 10.878 0.162901L0.60977 6.03685C0.219488 6.25438 0 6.66531 0 7.10036V18.8723C0 19.3074 0.243926 19.7184 0.60977 19.9359L10.878 25.8098C11.2683 26.0274 11.7317 26.0274 12.122 25.8098L22.3902 19.9359C22.7805 19.7184 23 19.3074 23 18.8723V7.10036C23 6.66531 22.7561 6.25438 22.3902 6.03685L12.122 0.162901Z" fill="white"/>
</mask>
<g mask="url(#mask0_400_500)">
<path d="M22.4147 6.03708L12.0975 0.163309C11.9999 0.115049 11.878 0.0666996 11.7804 0.0424805L0.219482 19.6703C0.317053 19.7912 0.439061 19.8879 0.560889 19.9604L10.878 25.8343C11.1707 26.0035 11.5122 26.0518 11.8293 25.9551L22.6828 6.27883C22.6096 6.18213 22.5121 6.10965 22.4146 6.03717L22.4147 6.03708Z" fill="url(#paint1_linear_400_500)"/>
</g>
<mask id="mask1_400_500" style="mask-type:luminance" maskUnits="userSpaceOnUse" x="0" y="-1" width="23" height="27">
<path d="M12.122 0.162901C11.7317 -0.054626 11.2683 -0.054626 10.878 0.162901L0.60977 6.03685C0.219488 6.25438 0 6.66531 0 7.10036V18.8723C0 19.3074 0.243926 19.7184 0.60977 19.9359L10.878 25.8098C11.2683 26.0274 11.7317 26.0274 12.122 25.8098L22.3902 19.9359C22.7805 19.7184 23 19.3074 23 18.8723V7.10036C23 6.66531 22.7561 6.25438 22.3902 6.03685L12.122 0.162901Z" fill="white"/>
</mask>
<g mask="url(#mask1_400_500)">
<path d="M22.439 19.9361C22.7317 19.7669 22.9512 19.4768 23.0488 19.1626L11.7317 0.0181016C11.439 -0.0302478 11.1219 -0.00611762 10.8537 0.16306L0.60968 6.01288L11.6586 25.9793C11.8048 25.9551 11.9756 25.9067 12.122 25.8341L22.439 19.9362V19.9361Z" fill="url(#paint2_linear_400_500)"/>
</g>
</g>
<defs>
<linearGradient id="paint0_linear_400_500" x1="1568.32" y1="454.193" x2="457.117" y2="2215.92" gradientUnits="userSpaceOnUse">
<stop stop-color="#41873F"/>
<stop offset="0.3288" stop-color="#418B3D"/>
<stop offset="0.6352" stop-color="#419637"/>
<stop offset="0.9319" stop-color="#3FA92D"/>
<stop offset="1" stop-color="#3FAE2A"/>
</linearGradient>
<linearGradient id="paint1_linear_400_500" x1="972.367" y1="1432.34" x2="3779.51" y2="-106.539" gradientUnits="userSpaceOnUse">
<stop offset="0.1376" stop-color="#41873F"/>
<stop offset="0.4032" stop-color="#54A044"/>
<stop offset="0.7136" stop-color="#66B848"/>
<stop offset="0.9081" stop-color="#6CC04A"/>
</linearGradient>
<linearGradient id="paint2_linear_400_500" x1="-97.8756" y1="1299.08" x2="2278.16" y2="1299.08" gradientUnits="userSpaceOnUse">
<stop offset="0.09192" stop-color="#6CC04A"/>
<stop offset="0.2864" stop-color="#66B848"/>
<stop offset="0.5968" stop-color="#54A044"/>
<stop offset="0.8624" stop-color="#41873F"/>
</linearGradient>
<clipPath id="clip0_400_500">
<rect width="23" height="26" fill="white"/>
</clipPath>
</defs>
</svg>
