<svg width="25" height="25" viewBox="0 0 23 20" fill="none" xmlns="http://www.w3.org/2000/svg">
<path d="M18.1608 6.50528C17.9257 6.42409 17.6887 6.34888 17.4498 6.27972C17.49 6.11469 17.5269 5.95166 17.5597 5.7915C18.0979 3.16142 17.746 1.04258 16.5442 0.344954C15.3919 -0.323834 13.5075 0.37353 11.6043 2.0409C11.4167 2.20552 11.2333 2.37488 11.0542 2.54883C10.9343 2.43316 10.8123 2.31974 10.6883 2.20862C8.69364 0.425817 6.69432 -0.325571 5.4938 0.374051C4.34255 1.04492 4.00165 3.03679 4.48621 5.52937C4.53442 5.77623 4.58885 6.02183 4.64945 6.26591C4.36645 6.34685 4.09337 6.43302 3.83202 6.52473C1.49345 7.34552 0 8.63177 0 9.96596C0 11.3439 1.60328 12.7261 4.03901 13.5641C4.23648 13.6318 4.43559 13.6945 4.63616 13.7522C4.57102 14.0151 4.51319 14.2797 4.46274 14.5459C4.00079 16.9952 4.36153 18.94 5.50968 19.6066C6.69553 20.295 8.68587 19.5875 10.6238 17.8821C10.781 17.7434 10.9347 17.6008 11.0848 17.4545C11.2787 17.6428 11.4778 17.8257 11.6818 18.0029C13.5591 19.629 15.4132 20.2856 16.5602 19.6172C17.7449 18.9268 18.13 16.8375 17.6301 14.2957C17.5907 14.0966 17.5465 13.8984 17.4976 13.7014C17.6374 13.6598 17.7746 13.6168 17.9083 13.5722C20.4405 12.7277 22.0881 11.3623 22.0881 9.96596C22.0881 8.6269 20.5464 7.33197 18.1608 6.50528ZM17.6116 12.6706C17.4908 12.7109 17.3669 12.7497 17.2406 12.7875C16.961 11.8966 16.5838 10.9493 16.1221 9.97056C16.5627 9.01515 16.9254 8.07997 17.1971 7.19491C17.4231 7.26075 17.6423 7.33015 17.8537 7.40337C19.8977 8.11176 21.1445 9.15898 21.1445 9.96596C21.1445 10.8255 19.798 11.9413 17.6116 12.6706ZM16.7044 14.4802C16.9255 15.6041 16.957 16.6203 16.8106 17.4148C16.6791 18.1287 16.4145 18.6045 16.0874 18.7952C15.3913 19.2008 13.9027 18.6736 12.2973 17.2829C12.1075 17.1181 11.9223 16.9481 11.7419 16.773C12.3643 16.0878 12.9863 15.2913 13.5934 14.4065C14.6612 14.3112 15.67 14.1552 16.5849 13.9423C16.6299 14.1253 16.6699 14.3047 16.7044 14.4802ZM7.5303 18.7251C6.85023 18.9668 6.30856 18.9738 5.98112 18.7837C5.2844 18.3792 4.99475 16.8177 5.38983 14.723C5.4368 14.4755 5.49057 14.2294 5.55109 13.9849C6.45584 14.1864 7.45731 14.3312 8.52763 14.4186C9.13885 15.2843 9.7788 16.08 10.4238 16.7767C10.2867 16.9103 10.1464 17.0403 10.003 17.1669C9.14593 17.921 8.28717 18.456 7.5303 18.7251ZM4.34427 12.6653C3.26722 12.2947 2.37775 11.8131 1.76808 11.2876C1.22019 10.8153 0.943661 10.3464 0.943661 9.96596C0.943661 9.15629 2.14271 8.12357 4.14263 7.42169C4.38534 7.33658 4.63936 7.25623 4.90295 7.18084C5.17939 8.08588 5.54195 9.03217 5.97948 9.98906C5.53625 10.9601 5.16852 11.9215 4.8894 12.8372C4.70632 12.7844 4.52456 12.7271 4.34427 12.6653ZM5.41227 5.34689C4.99717 3.21137 5.27284 1.60045 5.96663 1.19614C6.70554 0.765509 8.33954 1.37949 10.0618 2.91892C10.1741 3.01953 10.2846 3.12219 10.3932 3.22683C9.75145 3.92054 9.11737 4.71032 8.51158 5.57089C7.47276 5.66782 6.47836 5.82346 5.56412 6.032C5.50779 5.80498 5.45716 5.57648 5.41227 5.34689ZM14.9401 7.71527C14.7241 7.33978 14.5002 6.96903 14.2684 6.60325C14.9731 6.69298 15.6484 6.81205 16.2824 6.95762C16.0921 7.57187 15.8548 8.21399 15.5755 8.87236C15.3714 8.48244 15.1595 8.09667 14.9401 7.71527ZM11.0546 3.90569C11.4898 4.38036 11.9257 4.91026 12.3545 5.48525C11.4848 5.4439 10.6136 5.44372 9.74386 5.48473C10.173 4.91504 10.6126 4.38583 11.0546 3.90569ZM7.14428 7.72178C6.92757 8.10011 6.71966 8.48348 6.52072 8.87158C6.246 8.21555 6.01089 7.57048 5.81891 6.94755C6.44911 6.80563 7.12116 6.68959 7.82142 6.60152C7.58703 6.96952 7.36125 7.3431 7.14428 7.72178ZM7.84152 13.398C7.11805 13.3167 6.43591 13.2066 5.80588 13.0685C6.00088 12.4345 6.24117 11.7757 6.52185 11.1056C6.72157 11.494 6.93035 11.8776 7.14799 12.2561C7.37181 12.6452 7.60356 13.0263 7.84152 13.398ZM11.0807 16.0931C10.6334 15.6074 10.1873 15.07 9.75171 14.4921C10.1747 14.5088 10.6058 14.5173 11.044 14.5173C11.4942 14.5173 11.9393 14.5071 12.3773 14.4875C11.9472 15.0759 11.513 15.614 11.0807 16.0931ZM15.5844 11.0714C15.8797 11.7488 16.1285 12.4042 16.3261 13.0274C15.6857 13.1745 14.9943 13.293 14.2657 13.3809C14.4992 13.0084 14.7252 12.6312 14.9438 12.2496C15.166 11.8617 15.3796 11.4688 15.5844 11.0714ZM14.1264 11.775C13.7919 12.3601 13.4385 12.9341 13.0668 13.496C12.3936 13.544 11.7189 13.5679 11.044 13.5675C10.3566 13.5675 9.68803 13.546 9.0442 13.5039C8.66286 12.9433 8.30272 12.3683 7.96456 11.7802C7.62799 11.1952 7.3137 10.5976 7.02219 9.98863C7.31296 9.3795 7.62638 8.7816 7.9618 8.19619L7.96171 8.19627C8.297 7.61071 8.65426 7.03818 9.03273 6.47992C9.68959 6.42989 10.3632 6.40383 11.0439 6.40383C11.7278 6.40383 12.4024 6.43015 13.0591 6.48053C13.4337 7.03795 13.7887 7.60852 14.1233 8.19115C14.4599 8.77527 14.7774 9.37026 15.0755 9.97516C14.7805 10.5863 14.4639 11.1866 14.1264 11.775ZM16.073 1.16782C16.8126 1.59724 17.1002 3.32888 16.6355 5.59972C16.6058 5.7446 16.5725 5.89217 16.5363 6.04182C15.6198 5.82885 14.6247 5.67051 13.5829 5.5721C12.976 4.70207 12.3471 3.91107 11.7157 3.2263C11.8812 3.06575 12.0506 2.90936 12.2238 2.75728C13.8545 1.32877 15.3786 0.764728 16.073 1.16782ZM11.044 7.98044C12.1333 7.98044 13.0164 8.8694 13.0164 9.96596C13.0164 11.0625 12.1333 11.9515 11.044 11.9515C9.95473 11.9515 9.07164 11.0625 9.07164 9.96596C9.07164 8.8694 9.95473 7.98044 11.044 7.98044Z" fill="#00D8FF"/>
</svg>
